# xmcd
#
# Track frame offsets:
# 150
# 17100
# 29177
# 41595
# 62432
# 74070
# 85517
# 98187
# 111525
# 124357
# 142580
# 156562
# 167710
# 197045
# 213292
# 227840
# 254042
# 269837
# 286350
# 305305
#
# Disc length: 4272 seconds
#
#
# Revision: 0
# Processed by: cddbd v1.5.2PL0 Copyright (c) Steve Scherf et al.
# Submitted via: FreeRIP 2.51 
#
DISCID=3510ae14
DTITLE=Silvi Vrait - Eesti kullafond CD2
DYEAR=2002
DGENRE=Country
TTITLE0=Hümn armastusele
TTITLE1=Ilus plika
TTITLE2=Kuidas küll mul pea käib ringi
TTITLE3=Milord
TTITLE4=C'est si bon
TTITLE5=Olen armunud
TTITLE6=Nagu merelaine
TTITLE7=Valguses ja varjus
TTITLE8=Palvehelmed
TTITLE9=Olnut enam heaks ei tee
TTITLE10=Santa, too kallim tagasi
TTITLE11=Hag's Dixi Blues
TTITLE12=Stseen Mutikuga rockooperist Põhjaneitsi
TTITLE13=Hällilaul
TTITLE14=Narr mäe otsas
TTITLE15=Vihm
TTITLE16=Ligi ja kaugel
TTITLE17=Kibuvitsaõis
TTITLE18=Armuigatsus
TTITLE19=Väikene rahvas, väikene maa
EXTD=
EXTT0=
EXTT1=
EXTT2=
EXTT3=
EXTT4=
EXTT5=
EXTT6=
EXTT7=
EXTT8=
EXTT9=
EXTT10=
EXTT11=
EXTT12=
EXTT13=
EXTT14=
EXTT15=
EXTT16=
EXTT17=
EXTT18=
EXTT19=
PLAYORDER=
